<svg width="22.799" height="25.489" viewBox="0 0 22.799 25.489" xmlns="http://www.w3.org/2000/svg"><g id="svgGroup" stroke-linecap="round" fill-rule="evenodd" font-size="9pt" stroke="#f37323" stroke-width="0.25mm" fill="#f37323" style="stroke:#f37323;stroke-width:0.25mm;fill:#f37323"><path d="M 20.057 17.578 L 22.799 18.949 A 11.995 11.995 0 0 1 20.756 21.991 A 10.47 10.47 0 0 1 18.501 23.819 A 11.606 11.606 0 0 1 13.849 25.384 A 14.683 14.683 0 0 1 12.076 25.489 A 15.201 15.201 0 0 1 8.987 25.189 A 11.28 11.28 0 0 1 5.608 23.924 A 10.406 10.406 0 0 1 1.45 19.468 A 13.305 13.305 0 0 1 0.258 15.775 A 18.19 18.19 0 0 1 0 12.639 Q 0 8.684 1.442 5.854 A 10.103 10.103 0 0 1 5.59 1.512 A 11.616 11.616 0 0 1 9.176 0.25 A 15.9 15.9 0 0 1 12.059 0 Q 15.487 0 17.937 1.162 A 9.724 9.724 0 0 1 18.668 1.547 A 9.061 9.061 0 0 1 22.409 5.761 A 11.296 11.296 0 0 1 22.571 6.135 L 19.389 7.19 A 6.562 6.562 0 0 0 16.62 3.885 A 7.93 7.93 0 0 0 13.811 2.877 A 10.512 10.512 0 0 0 12.094 2.742 A 10.241 10.241 0 0 0 9.38 3.082 A 7.309 7.309 0 0 0 5.696 5.388 Q 3.637 7.771 3.433 11.745 A 17.431 17.431 0 0 0 3.41 12.639 A 14.33 14.33 0 0 0 3.648 15.309 A 10.783 10.783 0 0 0 4.491 17.939 A 8.694 8.694 0 0 0 6.18 20.373 A 7.944 7.944 0 0 0 7.55 21.472 A 8.002 8.002 0 0 0 10.731 22.624 A 10.437 10.437 0 0 0 12.235 22.729 A 8.146 8.146 0 0 0 16.605 21.56 Q 18.1 20.637 19.229 18.984 A 12.676 12.676 0 0 0 20.057 17.578 Z" vector-effect="non-scaling-stroke"/></g></svg>